<svg xmlns="http://www.w3.org/2000/svg" version="1.1" xmlns:xlink="http://www.w3.org/1999/xlink" xmlns:svgjs="http://svgjs.dev/svgjs" width="2000" height="671" viewBox="0 0 2000 671"><g transform="matrix(1,0,0,1,-1.2121212121212466,-0.6896220834155997)"><svg viewBox="0 0 396 133" data-background-color="#ffffff" preserveAspectRatio="xMidYMid meet" height="671" width="2000" xmlns="http://www.w3.org/2000/svg" xmlns:xlink="http://www.w3.org/1999/xlink"><g id="tight-bounds" transform="matrix(1,0,0,1,0.2400000000000091,0.1366911134042823)"><svg viewBox="0 0 395.52 132.7266177731914" height="132.7266177731914" width="395.52"><g><svg viewBox="0 0 512.6539741929562 172.03384931891188" height="132.7266177731914" width="395.52"><g transform="matrix(1,0,0,1,115.15637419295632,23.776024037563083)"><svg viewBox="0 0 397.4975999999999 124.48180124378571" height="124.48180124378571" width="397.4975999999999"><g id="textblocktransform"><svg viewBox="0 0 397.4975999999999 124.48180124378571" height="124.48180124378571" width="397.4975999999999" id="textblock"><g><rect width="397.4975999999999" height="7.023961569308124" x="0" y="86.16164990720351" fill="#198754" opacity="1" stroke-width="0" stroke="transparent" fill-opacity="1" class="rect-qz-0" data-fill-palette-color="primary" rx="1%" id="qz-0" data-palette-color="#198754"></rect></g><g transform="matrix(1,0,0,1,0.9887999999999693,0)"><svg viewBox="0 0 395.52 77.88734962922274" height="77.88734962922274" width="395.52"><g transform="matrix(1,0,0,1,0,0)"><svg width="395.52" viewBox="3.25 -35.01 177.77 35.01" height="77.88734962922274" data-palette-color="#198754"><path d="M31.25-35.01L31.25 0 23.75 0 10.25-23.05 10.25 0 3.25 0 3.25-35.01 10.74-35.01 24.24-11.94 24.24-35.01 31.25-35.01ZM35.69-24.51L35.69-24.51Q35.69-26.68 36.52-28.59 37.35-30.49 38.78-31.92 40.21-33.35 42.11-34.18 44.02-35.01 46.19-35.01L46.19-35.01 62.25-35.01 62.25-28 46.19-28Q45.46-28 44.82-27.73 44.19-27.47 43.71-26.99 43.23-26.51 42.97-25.88 42.7-25.24 42.7-24.51L42.7-24.51Q42.7-23.78 42.97-23.13 43.23-22.49 43.71-22.01 44.19-21.53 44.82-21.26 45.46-21 46.19-21L46.19-21 53.2-21Q55.37-21 57.29-20.18 59.2-19.36 60.63-17.93 62.06-16.5 62.88-14.59 63.69-12.67 63.69-10.5L63.69-10.5Q63.69-8.33 62.88-6.42 62.06-4.52 60.63-3.09 59.2-1.66 57.29-0.83 55.37 0 53.2 0L53.2 0 37.64 0 37.64-7.01 53.2-7.01Q53.93-7.01 54.56-7.28 55.2-7.54 55.67-8.02 56.15-8.5 56.42-9.13 56.69-9.77 56.69-10.5L56.69-10.5Q56.69-11.23 56.42-11.87 56.15-12.5 55.67-12.98 55.2-13.45 54.56-13.72 53.93-13.99 53.2-13.99L53.2-13.99 46.19-13.99Q44.02-13.99 42.11-14.82 40.21-15.65 38.78-17.08 37.35-18.51 36.52-20.42 35.69-22.34 35.69-24.51ZM74.87-13.99L88.89-13.99 88.89-21Q88.89-22.44 88.34-23.72 87.79-25 86.84-25.95 85.88-26.9 84.6-27.45 83.32-28 81.88-28L81.88-28Q80.44-28 79.16-27.45 77.88-26.9 76.92-25.95 75.97-25 75.42-23.72 74.87-22.44 74.87-21L74.87-21 74.87-13.99ZM95.89-21L95.89 0 88.89 0 88.89-7.01 74.87-7.01 74.87 0 67.89 0 67.89-21Q67.89-23.9 68.99-26.45 70.09-29 71.98-30.91 73.87-32.81 76.42-33.91 78.97-35.01 81.88-35.01L81.88-35.01Q84.79-35.01 87.34-33.91 89.89-32.81 91.79-30.91 93.7-29 94.79-26.45 95.89-23.9 95.89-21L95.89-21ZM101.68-21L122.18-21 122.18-14.36 101.68-14.36 101.68-21ZM135.41-35.01L135.41 0 128.41 0 128.41-35.01 135.41-35.01ZM155.92-28L148.91-28 148.91-13.99 155.92-13.99Q157.36-13.99 158.63-14.54 159.9-15.09 160.85-16.04 161.8-16.99 162.35-18.27 162.9-19.56 162.9-21L162.9-21Q162.9-22.44 162.35-23.72 161.8-25 160.85-25.95 159.9-26.9 158.63-27.45 157.36-28 155.92-28L155.92-28ZM148.91-7.01L148.91 0 141.91 0 141.91-35.01 155.92-35.01Q157.85-35.01 159.63-34.51 161.41-34.01 162.96-33.09 164.51-32.18 165.8-30.9 167.08-29.61 167.99-28.05 168.91-26.49 169.41-24.71 169.91-22.92 169.91-21L169.91-21Q169.91-18.12 168.81-15.56 167.71-13.01 165.81-11.11 163.9-9.2 161.35-8.11 158.8-7.01 155.92-7.01L155.92-7.01 148.91-7.01ZM181.02-35.01L181.02 0 174.01 0 174.01-35.01 181.02-35.01Z" opacity="1" transform="matrix(1,0,0,1,0,0)" fill="#198754" class="wordmark-text-0" data-fill-palette-color="primary" id="text-0"></path></svg></g></svg></g><g transform="matrix(1,0,0,1,22.742399999999975,101.45991175449241)"><svg viewBox="0 0 352.01279999999997 23.021889489293297" height="23.021889489293297" width="352.01279999999997"><g transform="matrix(1,0,0,1,0,0)"><svg width="352.01279999999997" viewBox="0.34375 -40.45 726.98625 47.550000000000004" height="23.021889489293297" data-palette-color="#198754"><path d="M28.15-1.2L17.15-34.8 6.2-1.2 6.2-1.25Q5.9-0.5 5.38-0.03 4.85 0.45 4.1 0.45L4.1 0.45Q3.7 0.45 3.33 0.38 2.95 0.3 2.55 0.2L2.55 0.2 2.6 0.2Q-0.25-0.7 0.5-3L0.5-3 11.9-37.65Q12.15-38.45 12.78-39 13.4-39.55 14.25-39.65L14.25-39.65Q15.1-39.8 15.9-39.88 16.7-39.95 17.15-39.95L17.15-39.95Q17.6-39.95 18.4-39.88 19.2-39.8 20.05-39.7L20.05-39.7Q20.75-39.6 21.43-38.95 22.1-38.3 22.45-37.65L22.45-37.65Q25.25-29.05 28.13-20.33 31-11.6 33.8-3L33.8-3Q34.5-0.7 31.7 0.2L31.7 0.2Q31.3 0.3 30.98 0.38 30.65 0.45 30.25 0.45L30.25 0.45Q29.55 0.45 28.98-0.03 28.4-0.5 28.15-1.25L28.15-1.25 28.15-1.2ZM20.9-12L20.9-12Q20.9-10.4 19.78-9.28 18.65-8.15 17.05-8.15L17.05-8.15Q15.45-8.15 14.35-9.28 13.25-10.4 13.25-12L13.25-12Q13.25-13.6 14.35-14.73 15.45-15.85 17.05-15.85L17.05-15.85Q18.65-15.85 19.78-14.73 20.9-13.6 20.9-12ZM43.35-21.75L43.35-2.1Q43.35 0.3 40.6 0.3L40.6 0.3Q37.85 0.3 37.85-2.1L37.85-2.1 37.85-22.2Q37.85-24.25 38.5-25.75 39.15-27.25 40.55-28.2L40.55-28.2Q43.2-30.1 45.85-30.1L45.85-30.1 53.9-30.1Q56.45-30.1 59.2-28.2L59.2-28.2Q61.9-26.3 61.9-22.2L61.9-22.2 61.9-2.1Q61.9 0.3 59.15 0.3L59.15 0.3Q56.4 0.3 56.4-2.1L56.4-2.1 56.4-21.75Q56.4-23.05 55.6-24.25L55.6-24.25 55.65-24.2Q55-25.4 53-25.4L53-25.4 46.75-25.4Q44.7-25.4 44.05-24.2L44.05-24.2Q43.35-23.15 43.35-21.75L43.35-21.75ZM91.34-30.1L99.34-30.1Q100.64-30.1 102.02-29.55 103.39-29 104.69-28.15L104.69-28.15 104.64-28.15Q105.94-27.2 106.64-25.68 107.34-24.15 107.34-22.15L107.34-22.15 107.34-7.95Q107.34-3.85 104.64-1.9L104.64-1.9Q101.99 0 99.34 0L99.34 0 91.34 0Q90.04 0 88.69-0.45 87.34-0.9 86.04-1.9L86.04-1.9Q83.34-3.8 83.34-7.95L83.34-7.95 83.34-22.15Q83.34-24.15 84.04-25.68 84.74-27.2 86.04-28.15L86.04-28.15 85.99-28.15Q87.24-29 88.64-29.55 90.04-30.1 91.34-30.1L91.34-30.1ZM92.24-4.7L98.44-4.7Q100.29-4.7 101.07-5.75 101.84-6.8 101.84-8L101.84-8 101.84-22.1Q101.84-23.35 101.07-24.38 100.29-25.4 98.44-25.4L98.44-25.4 92.24-25.4Q90.39-25.4 89.62-24.38 88.84-23.35 88.84-22.1L88.84-22.1 88.84-8Q88.84-6.8 89.62-5.75 90.39-4.7 92.24-4.7L92.24-4.7ZM119.14-21.75L119.14-2.1Q119.14 0.3 116.39 0.3L116.39 0.3Q113.64 0.3 113.64-2.1L113.64-2.1 113.64-22.2Q113.64-24.25 114.29-25.75 114.94-27.25 116.34-28.2L116.34-28.2Q118.99-30.1 121.64-30.1L121.64-30.1 129.69-30.1Q132.24-30.1 134.99-28.2L134.99-28.2Q137.69-26.3 137.69-22.2L137.69-22.2 137.69-2.1Q137.69 0.3 134.94 0.3L134.94 0.3Q132.19 0.3 132.19-2.1L132.19-2.1 132.19-21.75Q132.19-23.05 131.39-24.25L131.39-24.25 131.44-24.2Q130.79-25.4 128.79-25.4L128.79-25.4 122.54-25.4Q120.49-25.4 119.84-24.2L119.84-24.2Q119.14-23.15 119.14-21.75L119.14-21.75ZM149.84-37.8L149.84-1.95Q149.84 0.4 147.09 0.4L147.09 0.4Q144.29 0.4 144.29-1.95L144.29-1.95 144.29-37.8Q144.29-40.15 147.09-40.15L147.09-40.15Q149.84-40.15 149.84-37.8L149.84-37.8ZM162.39-27.9L162.39-2.1Q162.39 0.3 159.64 0.3L159.64 0.3Q156.84 0.3 156.84-2.1L156.84-2.1 156.84-27.9Q156.84-30.3 159.64-30.3L159.64-30.3Q162.39-30.3 162.39-27.9L162.39-27.9ZM163.44-36.6L163.44-36.6Q163.44-35 162.34-33.9 161.24-32.8 159.64-32.8L159.64-32.8Q158.04-32.8 156.91-33.9 155.79-35 155.79-36.6L155.79-36.6Q155.79-38.25 156.91-39.35 158.04-40.45 159.64-40.45L159.64-40.45Q161.24-40.45 162.34-39.35 163.44-38.25 163.44-36.6ZM174.83-21.75L174.83-2.1Q174.83 0.3 172.08 0.3L172.08 0.3Q169.33 0.3 169.33-2.1L169.33-2.1 169.33-22.2Q169.33-24.25 169.98-25.75 170.63-27.25 172.03-28.2L172.03-28.2Q174.68-30.1 177.33-30.1L177.33-30.1 185.38-30.1Q187.93-30.1 190.68-28.2L190.68-28.2Q193.38-26.3 193.38-22.2L193.38-22.2 193.38-2.1Q193.38 0.3 190.63 0.3L190.63 0.3Q187.88 0.3 187.88-2.1L187.88-2.1 187.88-21.75Q187.88-23.05 187.08-24.25L187.08-24.25 187.13-24.2Q186.48-25.4 184.48-25.4L184.48-25.4 178.23-25.4Q176.18-25.4 175.53-24.2L175.53-24.2Q174.83-23.15 174.83-21.75L174.83-21.75ZM205.33-22.15L205.33-8Q205.33-6.8 206.11-5.75 206.88-4.7 208.73-4.7L208.73-4.7 214.98-4.7Q216.83-4.7 217.61-5.63 218.38-6.55 218.38-7.75L218.38-7.75 218.38-8.3Q218.38-10.65 221.13-10.65L221.13-10.65Q223.88-10.65 223.88-8.3L223.88-8.3 223.88-7.7Q223.88-5.6 223.21-4.25 222.53-2.9 221.18-1.9L221.18-1.9Q218.53 0 215.88 0L215.88 0 207.48 0Q204.83 0 202.33-1.9L202.33-1.9Q201.13-2.9 200.48-4.42 199.83-5.95 199.83-7.95L199.83-7.95 199.83-22.2Q199.83-26.25 202.33-28.2L202.33-28.2Q203.58-29.1 204.91-29.63 206.23-30.15 207.48-30.15L207.48-30.15 215.88-30.15Q217.08-30.15 218.53-29.68 219.98-29.2 221.23-28.4L221.23-28.4Q222.43-27.55 223.16-26.05 223.88-24.55 223.88-22.5L223.88-22.5 223.88-15.75Q223.88-14.6 223.21-13.7 222.53-12.8 220.73-12.8L220.73-12.8 209.93-12.8Q208.13-12.8 208.03-15.15L208.03-15.15Q208.03-17.5 209.93-17.5L209.93-17.5 218.43-17.5 218.38-22.15Q218.38-23.4 217.61-24.43 216.83-25.45 214.98-25.45L214.98-25.45 208.73-25.45Q206.88-25.45 206.11-24.43 205.33-23.4 205.33-22.15L205.33-22.15ZM255.93-25.4L251.78-25.4 251.78-7.2Q251.78-5.9 252.33-5.2 252.88-4.5 254.68-4.5L254.68-4.5 255.98-4.5Q257.93-4.5 257.83-2.2L257.83-2.2Q257.83 0.15 255.98 0.15L255.98 0.15 254.33 0.15Q252.73 0.15 251.33-0.28 249.93-0.7 248.63-1.5L248.63-1.5 248.63-1.45Q246.18-3.05 246.18-7.15L246.18-7.15 246.18-25.4 244.23-25.4Q242.43-25.4 242.33-27.75L242.33-27.75Q242.33-30.1 244.23-30.1L244.23-30.1 246.18-30.1 246.18-35.45Q246.18-37.85 249.03-37.85L249.03-37.85Q251.78-37.85 251.78-35.45L251.78-35.45 251.78-30.1 255.93-30.1Q257.88-30.1 257.78-27.75L257.78-27.75Q257.78-25.4 255.93-25.4L255.93-25.4ZM270.17-30.1L278.17-30.1Q279.47-30.1 280.85-29.55 282.22-29 283.52-28.15L283.52-28.15 283.47-28.15Q284.77-27.2 285.47-25.68 286.17-24.15 286.17-22.15L286.17-22.15 286.17-7.95Q286.17-3.85 283.47-1.9L283.47-1.9Q280.82 0 278.17 0L278.17 0 270.17 0Q268.87 0 267.52-0.45 266.17-0.9 264.87-1.9L264.87-1.9Q262.17-3.8 262.17-7.95L262.17-7.95 262.17-22.15Q262.17-24.15 262.87-25.68 263.57-27.2 264.87-28.15L264.87-28.15 264.82-28.15Q266.07-29 267.47-29.55 268.87-30.1 270.17-30.1L270.17-30.1ZM271.07-4.7L277.27-4.7Q279.12-4.7 279.9-5.75 280.67-6.8 280.67-8L280.67-8 280.67-22.1Q280.67-23.35 279.9-24.38 279.12-25.4 277.27-25.4L277.27-25.4 271.07-25.4Q269.22-25.4 268.45-24.38 267.67-23.35 267.67-22.1L267.67-22.1 267.67-8Q267.67-6.8 268.45-5.75 269.22-4.7 271.07-4.7L271.07-4.7ZM300.47-30.1L308.47-30.1Q309.77-30.1 311.15-29.55 312.52-29 313.82-28.15L313.82-28.15 313.77-28.15Q315.07-27.2 315.77-25.68 316.47-24.15 316.47-22.15L316.47-22.15 316.47-7.95Q316.47-3.85 313.77-1.9L313.77-1.9Q311.12 0 308.47 0L308.47 0 300.47 0Q299.17 0 297.82-0.45 296.47-0.9 295.17-1.9L295.17-1.9Q292.47-3.8 292.47-7.95L292.47-7.95 292.47-22.15Q292.47-24.15 293.17-25.68 293.87-27.2 295.17-28.15L295.17-28.15 295.12-28.15Q296.37-29 297.77-29.55 299.17-30.1 300.47-30.1L300.47-30.1ZM301.37-4.7L307.57-4.7Q309.42-4.7 310.2-5.75 310.97-6.8 310.97-8L310.97-8 310.97-22.1Q310.97-23.35 310.2-24.38 309.42-25.4 307.57-25.4L307.57-25.4 301.37-25.4Q299.52-25.4 298.75-24.38 297.97-23.35 297.97-22.1L297.97-22.1 297.97-8Q297.97-6.8 298.75-5.75 299.52-4.7 301.37-4.7L301.37-4.7ZM328.47-37.8L328.47-1.95Q328.47 0.4 325.72 0.4L325.72 0.4Q322.92 0.4 322.92-1.95L322.92-1.95 322.92-37.8Q322.92-40.15 325.72-40.15L325.72-40.15Q328.47-40.15 328.47-37.8L328.47-37.8ZM357.31-25.4L357.31-2.1Q357.31 0.3 354.51 0.3L354.51 0.3Q351.76 0.3 351.76-2.1L351.76-2.1 351.76-25.4 349.36-25.4Q347.56-25.4 347.46-27.75L347.46-27.75Q347.46-30.1 349.36-30.1L349.36-30.1 351.76-30.1 351.76-32.5Q351.76-34.55 352.34-35.98 352.91-37.4 354.21-38.15L354.21-38.15 354.21-38.1Q355.51-38.9 356.89-39.35 358.26-39.8 359.81-39.8L359.81-39.8 361.01-39.8Q362.86-39.8 362.86-37.45L362.86-37.45Q362.96-35.1 361.01-35.1L361.01-35.1 360.21-35.1Q359.26-35.1 358.69-34.93 358.11-34.75 357.81-34.4 357.51-34.05 357.41-33.55 357.31-33.05 357.31-32.45L357.31-32.45 357.31-30.1 361.06-30.1Q363.01-30.1 362.91-27.75L362.91-27.75Q362.91-25.4 361.06-25.4L361.06-25.4 357.31-25.4ZM375.16-30.1L383.16-30.1Q384.46-30.1 385.84-29.55 387.21-29 388.51-28.15L388.51-28.15 388.46-28.15Q389.76-27.2 390.46-25.68 391.16-24.15 391.16-22.15L391.16-22.15 391.16-7.95Q391.16-3.85 388.46-1.9L388.46-1.9Q385.81 0 383.16 0L383.16 0 375.16 0Q373.86 0 372.51-0.45 371.16-0.9 369.86-1.9L369.86-1.9Q367.16-3.8 367.16-7.95L367.16-7.95 367.16-22.15Q367.16-24.15 367.86-25.68 368.56-27.2 369.86-28.15L369.86-28.15 369.81-28.15Q371.06-29 372.46-29.55 373.86-30.1 375.16-30.1L375.16-30.1ZM376.06-4.7L382.26-4.7Q384.11-4.7 384.89-5.75 385.66-6.8 385.66-8L385.66-8 385.66-22.1Q385.66-23.35 384.89-24.38 384.11-25.4 382.26-25.4L382.26-25.4 376.06-25.4Q374.21-25.4 373.44-24.38 372.66-23.35 372.66-22.1L372.66-22.1 372.66-8Q372.66-6.8 373.44-5.75 374.21-4.7 376.06-4.7L376.06-4.7ZM402.86-22.75L402.86-2.1Q402.86 0.3 400.11 0.3L400.11 0.3Q397.26 0.3 397.26-2.1L397.26-2.1 397.26-22.8Q397.26-26.9 399.71-28.5L399.71-28.5Q402.16-30.1 405.36-30.1L405.36-30.1 411.06-30.1Q412.91-30.1 412.91-27.75L412.91-27.75Q413.01-25.4 411.06-25.4L411.06-25.4 405.76-25.4Q403.96-25.4 403.41-24.7 402.86-24 402.86-22.75L402.86-22.75ZM454.75-10.5L454.75-37.55Q454.75-39.95 457.7-39.95L457.7-39.95Q460.65-39.95 460.65-37.55L460.65-37.55 460.65-3.05Q460.65-1.3 458.8-0.5L458.8-0.5 458.85-0.5Q458.05-0.15 457.15 0.05 456.25 0.25 455.4 0.25L455.4 0.25Q454.75 0.25 454.05 0.13 453.35 0 452.73-0.28 452.1-0.55 451.58-1.03 451.05-1.5 450.75-2.2L450.75-2.2 439.9-29.25 438.55-29.1 438.55-2.1Q438.55 0.3 435.55 0.3L435.55 0.3Q432.6 0.3 432.6-2.1L432.6-2.1 432.6-36.55Q432.6-38.6 434.4-39.3L434.4-39.3Q436.05-39.95 437.9-39.95L437.9-39.95Q439.2-39.95 440.53-39.43 441.85-38.9 442.55-37.45L442.55-37.45 453.35-10.35 454.75-10.5ZM477.4-22.85L487.05-22.85Q488.35-22.85 489.75-22.3 491.15-21.75 492.45-20.85L492.45-20.85 492.4-20.85Q493.7-19.95 494.4-18.4 495.1-16.85 495.1-14.85L495.1-14.85 495.1-8Q495.1-3.95 492.4-1.95L492.4-1.95Q491.1-1 489.73-0.48 488.35 0.05 487.05 0.05L487.05 0.05 476.15 0.05Q474.85 0.05 473.48-0.48 472.1-1 470.8-1.95L470.8-1.95Q468.1-3.95 468.1-8L468.1-8 468.1-11.3Q468.1-13.65 471.05-13.65L471.05-13.65Q474.05-13.65 474.05-11.3L474.05-11.3 474.05-8.4Q474.05-7.1 474.8-6.05 475.55-5 477.4-5L477.4-5 485.8-5Q487.65-5 488.4-6.05 489.15-7.1 489.15-8.4L489.15-8.4 489.15-14.45Q489.15-15.7 488.4-16.78 487.65-17.85 485.8-17.85L485.8-17.85 476.15-17.85Q473.55-17.85 470.8-19.75L470.8-19.75Q468.1-21.85 468.1-25.8L468.1-25.8 468.1-31.75Q468.1-33.75 468.8-35.27 469.5-36.8 470.8-37.75L470.8-37.75 470.75-37.75Q472.05-38.6 473.45-39.15 474.85-39.7 476.15-39.7L476.15-39.7 487.05-39.7Q488.35-39.7 489.75-39.15 491.15-38.6 492.45-37.75L492.45-37.75 492.4-37.75Q493.7-36.8 494.4-35.27 495.1-33.75 495.1-31.75L495.1-31.75 495.1-28.8Q495.1-26.45 492.1-26.45L492.1-26.45Q489.15-26.45 489.15-28.8L489.15-28.8 489.15-31.3Q489.15-32.55 488.4-33.6 487.65-34.65 485.8-34.65L485.8-34.65 477.4-34.65Q475.55-34.65 474.8-33.6 474.05-32.55 474.05-31.3L474.05-31.3 474.05-26.2Q474.05-24.9 474.8-23.88 475.55-22.85 477.4-22.85L477.4-22.85ZM527.1-1.2L516.1-34.8 505.15-1.2 505.15-1.25Q504.85-0.5 504.32-0.03 503.8 0.45 503.05 0.45L503.05 0.45Q502.65 0.45 502.27 0.38 501.9 0.3 501.5 0.2L501.5 0.2 501.55 0.2Q498.7-0.7 499.45-3L499.45-3 510.85-37.65Q511.1-38.45 511.72-39 512.35-39.55 513.2-39.65L513.2-39.65Q514.05-39.8 514.85-39.88 515.65-39.95 516.1-39.95L516.1-39.95Q516.55-39.95 517.35-39.88 518.15-39.8 519-39.7L519-39.7Q519.7-39.6 520.37-38.95 521.05-38.3 521.4-37.65L521.4-37.65Q524.2-29.05 527.07-20.33 529.95-11.6 532.75-3L532.75-3Q533.45-0.7 530.65 0.2L530.65 0.2Q530.25 0.3 529.92 0.38 529.6 0.45 529.2 0.45L529.2 0.45Q528.5 0.45 527.92-0.03 527.35-0.5 527.1-1.25L527.1-1.25 527.1-1.2ZM519.85-12L519.85-12Q519.85-10.4 518.72-9.28 517.6-8.15 516-8.15L516-8.15Q514.4-8.15 513.3-9.28 512.2-10.4 512.2-12L512.2-12Q512.2-13.6 513.3-14.73 514.4-15.85 516-15.85L516-15.85Q517.6-15.85 518.72-14.73 519.85-13.6 519.85-12ZM557.29-25.4L557.29-2.1Q557.29 0.3 554.54 0.3L554.54 0.3Q551.79 0.3 551.79-2.1L551.79-2.1 551.79-37.6Q551.79-40 554.54-40L554.54-40Q557.29-40 557.29-37.6L557.29-37.6 557.29-30.1 567.84-30.1Q570.39-30.1 573.14-28.2L573.14-28.2Q575.84-26.3 575.84-22.2L575.84-22.2 575.84-2.1Q575.84 0.3 573.09 0.3L573.09 0.3Q570.34 0.3 570.34-2.1L570.34-2.1 570.34-21.75Q570.34-23.05 569.54-24.25L569.54-24.25 569.59-24.2Q568.94-25.4 566.94-25.4L566.94-25.4 557.29-25.4ZM606.49-28L606.49-7.95Q606.49-5.95 605.79-4.4 605.09-2.85 603.79-1.9L603.79-1.9 603.84-1.9Q602.59-1.05 601.19-0.53 599.79 0 598.49 0L598.49 0 590.44 0Q589.19 0 587.76-0.53 586.34-1.05 585.09-1.9L585.09-1.9 585.14-1.9Q583.84-2.85 583.14-4.4 582.44-5.95 582.44-7.95L582.44-7.95 582.44-28Q582.44-30.4 585.19-30.4L585.19-30.4Q587.94-30.4 587.94-28L587.94-28 587.94-8.35Q587.94-6.95 588.64-5.9L588.64-5.9Q589.29-4.7 591.34-4.7L591.34-4.7 597.59-4.7Q599.59-4.7 600.24-5.9L600.24-5.9 600.19-5.85Q600.99-7.05 600.99-8.35L600.99-8.35 600.99-28Q600.99-30.4 603.74-30.4L603.74-30.4Q606.49-30.4 606.49-28L606.49-28ZM618.24-21.75L618.24-2.1Q618.24 0.3 615.49 0.3L615.49 0.3Q612.74 0.3 612.74-2.1L612.74-2.1 612.74-22.2Q612.74-24.25 613.39-25.75 614.04-27.25 615.44-28.2L615.44-28.2Q618.09-30.1 620.74-30.1L620.74-30.1 628.79-30.1Q631.34-30.1 634.09-28.2L634.09-28.2Q636.79-26.3 636.79-22.2L636.79-22.2 636.79-2.1Q636.79 0.3 634.04 0.3L634.04 0.3Q631.29 0.3 631.29-2.1L631.29-2.1 631.29-21.75Q631.29-23.05 630.49-24.25L630.49-24.25 630.54-24.2Q629.89-25.4 627.89-25.4L627.89-25.4 621.64-25.4Q619.59-25.4 618.94-24.2L618.94-24.2Q618.24-23.15 618.24-21.75L618.24-21.75ZM653.93-25.4L649.78-25.4 649.78-7.2Q649.78-5.9 650.33-5.2 650.88-4.5 652.68-4.5L652.68-4.5 653.98-4.5Q655.93-4.5 655.83-2.2L655.83-2.2Q655.83 0.15 653.98 0.15L653.98 0.15 652.33 0.15Q650.73 0.15 649.33-0.28 647.93-0.7 646.63-1.5L646.63-1.5 646.63-1.45Q644.18-3.05 644.18-7.15L644.18-7.15 644.18-25.4 642.23-25.4Q640.43-25.4 640.33-27.75L640.33-27.75Q640.33-30.1 642.23-30.1L642.23-30.1 644.18-30.1 644.18-35.45Q644.18-37.85 647.03-37.85L647.03-37.85Q649.78-37.85 649.78-35.45L649.78-35.45 649.78-30.1 653.93-30.1Q655.88-30.1 655.78-27.75L655.78-27.75Q655.78-25.4 653.93-25.4L653.93-25.4ZM665.83-27.9L665.83-2.1Q665.83 0.3 663.08 0.3L663.08 0.3Q660.28 0.3 660.28-2.1L660.28-2.1 660.28-27.9Q660.28-30.3 663.08-30.3L663.08-30.3Q665.83-30.3 665.83-27.9L665.83-27.9ZM666.88-36.6L666.88-36.6Q666.88-35 665.78-33.9 664.68-32.8 663.08-32.8L663.08-32.8Q661.48-32.8 660.36-33.9 659.23-35 659.23-36.6L659.23-36.6Q659.23-38.25 660.36-39.35 661.48-40.45 663.08-40.45L663.08-40.45Q664.68-40.45 665.78-39.35 666.88-38.25 666.88-36.6ZM678.28-21.75L678.28-2.1Q678.28 0.3 675.53 0.3L675.53 0.3Q672.78 0.3 672.78-2.1L672.78-2.1 672.78-22.2Q672.78-24.25 673.43-25.75 674.08-27.25 675.48-28.2L675.48-28.2Q678.13-30.1 680.78-30.1L680.78-30.1 688.83-30.1Q691.38-30.1 694.13-28.2L694.13-28.2Q696.83-26.3 696.83-22.2L696.83-22.2 696.83-2.1Q696.83 0.3 694.08 0.3L694.08 0.3Q691.33 0.3 691.33-2.1L691.33-2.1 691.33-21.75Q691.33-23.05 690.53-24.25L690.53-24.25 690.58-24.2Q689.93-25.4 687.93-25.4L687.93-25.4 681.68-25.4Q679.63-25.4 678.98-24.2L678.98-24.2Q678.28-23.15 678.28-21.75L678.28-21.75ZM717.38-3.5L711.33-3.5Q710.03-3.5 708.65-3.95 707.28-4.4 705.98-5.25L705.98-5.25Q703.28-7 703.28-11.15L703.28-11.15 703.28-22.45Q703.28-24.55 704-26.05 704.73-27.55 705.98-28.4L705.98-28.4Q707.28-29.2 708.63-29.65 709.98-30.1 711.28-30.1L711.28-30.1 719.68-30.1Q720.93-30.1 722.28-29.55 723.63-29 724.78-28.15L724.78-28.15Q725.93-27.2 726.63-25.65 727.33-24.1 727.33-22.15L727.33-22.15 727.33-0.95Q727.33 1.15 726.65 2.63 725.98 4.1 724.78 5.1L724.78 5.1Q723.63 6.05 722.3 6.58 720.98 7.1 719.68 7.1L719.68 7.1 711.28 7.1Q708.63 7.1 705.93 5.55L705.93 5.55Q704.53 4.75 703.9 3.5 703.28 2.25 703.28 0.6L703.28 0.6 703.28 0Q703.28-1 703.93-1.6 704.58-2.2 705.98-2.2L705.98-2.2Q708.78-1.9 708.78 0L708.78 0 708.78 0.55Q708.78 1.1 709.55 1.75 710.33 2.4 712.18 2.4L712.18 2.4 718.43 2.4Q720.28 2.4 721.05 1.35 721.83 0.3 721.83-1L721.83-1 721.83-22.1Q721.83-23.35 721.05-24.38 720.28-25.4 718.43-25.4L718.43-25.4 712.18-25.4Q710.33-25.4 709.55-24.38 708.78-23.35 708.78-22.1L708.78-22.1 708.78-11.55Q708.78-10.3 709.55-9.22 710.33-8.15 712.18-8.15L712.18-8.15 717.38-8.15Q719.18-8.15 719.18-5.85L719.18-5.85Q719.18-4.8 718.75-4.15 718.33-3.5 717.38-3.5L717.38-3.5Z" opacity="1" transform="matrix(1,0,0,1,0,0)" fill="#198754" class="slogan-text-1" data-fill-palette-color="secondary" id="text-1"></path></svg></g></svg></g></svg></g></svg></g><g><svg viewBox="0 0 96.76904024188794 172.03384931891188" height="172.03384931891188" width="96.76904024188794"><g><svg xmlns="http://www.w3.org/2000/svg" xmlns:xlink="http://www.w3.org/1999/xlink" version="1.1" x="0" y="0" viewBox="32 18 36 64" style="enable-background:new 0 0 100 100;" xml:space="preserve" height="172.03384931891188" width="96.76904024188794" class="icon-icon-0" data-fill-palette-color="accent" id="icon-0"><path d="M33 82c0.6 0 1-0.4 1-1 0-13.1 8.1-21.4 16.7-30.2C59.2 42 68 33 68 19c0-0.6-0.4-1-1-1s-1 0.4-1 1c0 13.2-8.1 21.5-16.7 30.4C40.8 58.1 32 67.1 32 81 32 81.6 32.4 82 33 82z" fill="#198754" data-fill-palette-color="accent"></path><path d="M67 82c0.6 0 1-0.4 1-1 0-11.7-5.9-19.8-12.3-26.7-0.4-0.4-1-0.4-1.4-0.1-0.4 0.4-0.4 1-0.1 1.4C60.4 62.3 66 69.9 66 81 66 81.6 66.4 82 67 82z" fill="#198754" data-fill-palette-color="accent"></path><path d="M33 18c-0.6 0-1 0.4-1 1 0 11.7 5.9 19.8 12.3 26.7 0.2 0.2 0.5 0.3 0.7 0.3 0.2 0 0.5-0.1 0.7-0.3 0.4-0.4 0.4-1 0.1-1.4C39.6 37.7 34 30.1 34 19 34 18.4 33.6 18 33 18z" fill="#198754" data-fill-palette-color="accent"></path><path d="M38 78c0 0.6 0.4 1 1 1h22c0.6 0 1-0.4 1-1s-0.4-1-1-1H39C38.4 77 38 77.4 38 78z" fill="#198754" data-fill-palette-color="accent"></path><path d="M39 73c0 0.6 0.4 1 1 1h20c0.6 0 1-0.4 1-1s-0.4-1-1-1H40C39.4 72 39 72.4 39 73z" fill="#198754" data-fill-palette-color="accent"></path><path d="M41 68c0 0.6 0.4 1 1 1h16c0.6 0 1-0.4 1-1s-0.4-1-1-1H42C41.4 67 41 67.4 41 68z" fill="#198754" data-fill-palette-color="accent"></path><path d="M44 63c0 0.6 0.4 1 1 1h10c0.6 0 1-0.4 1-1s-0.4-1-1-1H45C44.4 62 44 62.4 44 63z" fill="#198754" data-fill-palette-color="accent"></path><path d="M51 59c0.6 0 1-0.4 1-1s-0.4-1-1-1h-2c-0.6 0-1 0.4-1 1s0.4 1 1 1H51z" fill="#198754" data-fill-palette-color="accent"></path><path d="M62 22c0-0.6-0.4-1-1-1H39c-0.6 0-1 0.4-1 1s0.4 1 1 1h22C61.6 23 62 22.6 62 22z" fill="#198754" data-fill-palette-color="accent"></path><path d="M61 27c0-0.6-0.4-1-1-1H40c-0.6 0-1 0.4-1 1s0.4 1 1 1h20C60.6 28 61 27.6 61 27z" fill="#198754" data-fill-palette-color="accent"></path><path d="M59 32c0-0.6-0.4-1-1-1H42c-0.6 0-1 0.4-1 1s0.4 1 1 1h16C58.6 33 59 32.6 59 32z" fill="#198754" data-fill-palette-color="accent"></path><path d="M56 37c0-0.6-0.4-1-1-1H45c-0.6 0-1 0.4-1 1s0.4 1 1 1h10C55.6 38 56 37.6 56 37z" fill="#198754" data-fill-palette-color="accent"></path><path d="M49 41c-0.6 0-1 0.4-1 1s0.4 1 1 1h2c0.6 0 1-0.4 1-1s-0.4-1-1-1H49z" fill="#198754" data-fill-palette-color="accent"></path></svg></g></svg></g></svg></g><defs></defs></svg><rect width="395.52" height="132.7266177731914" fill="none" stroke="none" visibility="hidden"></rect></g></svg></g></svg>